<svg width="123" height="53" viewBox="0 0 123 53" fill="none" xmlns="http://www.w3.org/2000/svg">
<rect width="123" height="53" fill="#445ECC"/>
<path fill-rule="evenodd" clip-rule="evenodd" d="M15 34.6236V17.8871H21.8384V34.6236H19.9174V20.3155H16.9285V34.6236H15ZM27.0377 17.5112C25.9165 17.5112 25.0345 18.3055 24.3918 19.8939C23.7487 21.4974 23.4271 23.5993 23.4271 26.1984C23.4271 28.8888 23.738 31.0283 24.3597 32.6168C24.9708 34.2058 25.8635 35 27.0373 35C28.233 35 29.1683 34.1676 29.8431 32.5029C30.4858 30.9144 30.8073 28.8056 30.8073 26.1753C30.8073 23.5762 30.4751 21.4819 29.811 19.8939C29.147 18.3055 28.2227 17.5112 27.0377 17.5112ZM25.2603 26.2215C25.2603 24.3817 25.4118 22.8883 25.7148 21.7407C26.007 20.5856 26.448 20.0078 27.0377 20.0078C27.6911 20.0078 28.1641 20.5931 28.4564 21.7638C28.7167 22.7895 28.8468 24.2604 28.8468 26.1753C28.8468 28.0226 28.6953 29.5386 28.3924 30.7243C28.0898 31.91 27.6381 32.5029 27.0377 32.5029C26.4583 32.5029 26.0173 31.9025 25.7148 30.7018C25.4118 29.501 25.2603 28.0071 25.2603 26.221V26.2215ZM36.5727 17.8871H38.5016V34.6236H36.5727V26.3805H34.8273C33.9983 26.3805 33.2971 26.0158 32.7232 25.2866C32.1339 24.5724 31.8388 23.675 31.8388 22.5962V17.8871H33.7515V22.2766C33.7515 22.7251 33.8472 23.0822 34.0383 23.348C34.304 23.7056 34.7027 23.8839 35.2339 23.8839H36.5727V17.8871ZM43.4621 34.6236H41.5411V20.3611H39.7079V17.8871H45.3111V20.3611H43.4621V34.6236ZM46.7962 17.8871H49.9128C50.832 17.8871 51.557 18.1879 52.0881 18.7877C52.7526 19.5406 53.0848 20.7263 53.0848 22.3448L54.0807 34.6236H52.1522L51.5463 26.2892H48.5258L48.3185 34.6236H46.39L46.7966 17.8871H46.7962ZM48.5578 23.8383H51.3232C51.233 22.5462 51.0788 21.6569 50.8613 21.1704C50.6006 20.6157 50.1652 20.338 49.5541 20.338H48.6294L48.5578 23.8383ZM61.0049 34.3293V17.5929H63.1806C64.6365 17.5929 65.6858 18.4553 66.3289 20.1812C66.7433 21.2826 66.9506 22.5602 66.9506 24.0112C66.9506 26.0942 66.6955 27.6747 66.1853 28.754C65.7391 29.6815 65.1732 30.1449 64.4878 30.1449C63.9404 30.1449 63.4436 29.8522 62.9975 29.2674V34.3293H61.0049ZM62.9817 19.873V25.0374C62.9817 25.8429 63.0746 26.4664 63.2605 26.9073C63.4357 27.3406 63.6536 27.5571 63.9139 27.5571C64.1848 27.5571 64.4185 27.3122 64.6151 26.8214C64.8117 26.3316 64.9102 25.6346 64.9102 24.7297C64.9102 23.0499 64.7575 21.817 64.4518 21.0297C64.1464 20.2435 63.7228 19.8504 63.1806 19.8504C63.1146 19.8629 63.0482 19.8705 62.9817 19.873ZM71.5444 17.2164C70.4232 17.2164 69.5412 18.0112 68.8985 19.5991C68.2554 21.2032 67.9338 23.3045 67.9338 25.9036C67.9338 28.5946 68.2447 30.734 68.8664 32.3225C69.4775 33.9109 70.3702 34.7052 71.544 34.7052C72.7397 34.7052 73.6747 33.8728 74.3498 32.2081C74.9925 30.6202 75.314 28.5108 75.314 25.8811C75.314 23.2819 74.9818 21.1876 74.3178 19.5991C73.6533 18.0107 72.729 17.2164 71.5444 17.2164ZM69.767 25.9267C69.767 24.0874 69.9185 22.594 70.2211 21.4464C70.5137 20.2908 70.9543 19.7135 71.5444 19.7135C72.1978 19.7135 72.6708 20.2988 72.9627 21.4695C73.2234 22.4952 73.3535 23.9661 73.3535 25.8811C73.3535 27.7284 73.202 29.2443 72.8991 30.4301C72.5961 31.6158 72.1448 32.2086 71.5444 32.2086C70.965 32.2086 70.524 31.6083 70.2211 30.4075C69.9185 29.2062 69.767 27.7128 69.767 25.9267ZM78.5687 26.018C78.5687 27.789 78.9274 29.2368 79.6445 30.3619C80.4153 31.5626 81.4963 32.163 82.8884 32.163V34.8427C80.8642 34.8427 79.2755 34.0022 78.1226 32.3225C77.023 30.719 76.4729 28.6252 76.4729 26.0405C76.4729 23.3652 76.9803 21.2638 77.9952 19.7361C79.1054 18.0563 80.7262 17.2164 82.8568 17.2164V19.8961C81.433 19.8961 80.3461 20.4884 79.597 21.6741C78.9116 22.746 78.5687 24.1938 78.5687 26.018ZM86.0636 26.018C86.0636 27.789 86.4223 29.2368 87.1394 30.3619C87.9102 31.5626 88.9912 32.163 90.3834 32.163V34.8427C88.3591 34.8427 86.7704 34.0022 85.6175 32.3225C84.5176 30.719 83.9678 28.6252 83.9678 26.0405C83.9678 23.3652 84.4752 21.2638 85.4897 19.7361C86.6003 18.0563 88.2207 17.2164 90.3513 17.2164V19.8961C88.9275 19.8961 87.841 20.4884 87.0919 21.6741C86.4065 22.746 86.0636 24.1938 86.0636 26.018ZM98.9944 17L99.4967 34.3293H97.5358L97.2091 22.9624L93.9176 27.4432L93.9335 34.3293H91.9729V17.5929H93.9335V23.7722L98.9944 17ZM108.498 17L109 34.3293H107.039L106.712 22.9624L103.421 27.4432L103.437 34.3293H101.476V17.5929H103.437V23.7722L108.497 17H108.498Z" fill="white"/>
</svg>
