<svg width="123" height="53" viewBox="0 0 123 53" fill="none" xmlns="http://www.w3.org/2000/svg">
<rect width="123" height="53" fill="#00B33C"/>
<path fill-rule="evenodd" clip-rule="evenodd" d="M40.8397 31.0452C38.645 31.0452 37.6461 31.6563 37.2521 32.9354L36 37H78.6571C80.8519 37 81.8508 36.3889 82.2447 35.1098L83.4968 31.0452H40.8397ZM45.9749 25.3747H43.8646C40.5724 25.3747 42.9641 18.3114 45.7357 18.3114H49.0701C49.6047 18.3114 50.5473 18.4109 51.0116 17.0749L51.7291 15H47.1567C44.6806 15 42.7531 15.8811 41.3603 17.3592C38.9545 19.8889 38.1385 23.8398 38.7153 25.73C39.264 27.478 40.7553 28.6292 43.0908 28.6576L44.9057 28.6718H47.1426L47.6913 27.009C48.0993 25.8295 47.1848 25.3747 45.9749 25.3747ZM71.6648 22.447L72.3542 20.1873H64.9961C63.7721 20.1873 63.2234 20.5284 63.0124 21.239L62.323 23.4987H69.6811C70.9051 23.4987 71.4538 23.1576 71.6648 22.447ZM61.2257 26.4264L60.5363 28.686H67.8943C69.1043 28.686 69.667 28.345 69.8781 27.6344L70.5675 25.3747H63.2094C61.9994 25.3747 61.4508 25.7158 61.2257 26.4264ZM73.3812 17.2739L74.0706 15.0142H66.7126C65.4886 15.0142 64.9399 15.3553 64.7288 16.0659L64.0394 18.3256H71.3975C72.6074 18.3256 73.1561 17.9845 73.3812 17.2739ZM62.2668 17.7287C61.9572 15.6253 60.8458 15.0142 58.1446 15.0142H53.2204L50.3503 23.4987H52.1652C53.2486 23.4987 53.7972 23.5129 54.3741 21.9496L55.5699 18.3114H57.3989C58.9606 18.3114 58.6088 20.2868 57.821 22.2054C57.1175 23.8966 55.8935 25.3889 54.4163 25.3889H51.3633C50.1393 25.3889 49.5766 25.73 49.3514 26.4406L48.5917 28.7003H50.8287L53.0234 28.686C54.965 28.6718 56.5548 28.5297 58.4119 26.8385C60.3815 25.0336 62.6607 20.4005 62.2668 17.7287ZM87 15H82.7371L78.7275 19.3062C78.2632 19.8036 77.7848 20.301 77.3206 20.8837H77.2783L79.2761 15H75.8011L71.1161 28.686H74.5912L76.0825 24.3798L77.6301 23.0581L78.8541 26.9522C79.2339 28.1602 79.6279 28.686 80.472 28.686H83.131L80.4017 21.0401L87 15Z" fill="white"/>
<path d="M42.6197 34.0725V35.2174H42V32.0435H43.2254C43.5775 32.0435 43.8592 32.1304 44.0563 32.3188C44.2535 32.5072 44.3662 32.7536 44.3662 33.058C44.3662 33.3623 44.2676 33.6087 44.0563 33.7971C43.8592 33.9855 43.5775 34.0725 43.2254 34.0725H42.6197ZM42.6197 33.5797H43.2254C43.3944 33.5797 43.5211 33.5362 43.6197 33.4348C43.7042 33.3333 43.7465 33.2174 43.7465 33.0725C43.7465 32.913 43.7042 32.7971 43.6197 32.6957C43.5352 32.5942 43.3944 32.5507 43.2254 32.5507H42.6197V33.5797ZM46.1268 34.5362H45.0423L44.831 35.2174H44.2113L45.2676 32.0435H45.9014L46.9577 35.2174H46.338L46.1268 34.5362ZM45.1972 34.029H45.9718L45.5915 32.7826H45.5775L45.1972 34.029ZM49.2254 32.5362H47.8592V33.1594H48.3944C48.7465 33.1594 49.0282 33.2609 49.2394 33.4493C49.4507 33.6377 49.5493 33.8841 49.5493 34.1884C49.5493 34.4928 49.4507 34.7391 49.2394 34.9275C49.0282 35.1159 48.7465 35.2174 48.3944 35.2174H47.2113V32.0435H49.2254V32.5362ZM47.8592 33.6522V34.7246H48.3944C48.5634 34.7246 48.7042 34.6667 48.7887 34.5652C48.8732 34.4638 48.9296 34.3333 48.9296 34.1739C48.9296 34.029 48.8873 33.8985 48.7887 33.7971C48.6901 33.6957 48.5634 33.6377 48.3944 33.6377H47.8592V33.6522ZM52.4507 33.913C52.4507 34.3043 52.338 34.6232 52.0986 34.8841C51.8592 35.1449 51.5493 35.2609 51.169 35.2609C50.7887 35.2609 50.4789 35.1304 50.2394 34.8841C50 34.6377 49.8873 34.3043 49.8873 33.913V33.3478C49.8873 32.9565 50 32.6377 50.2394 32.3768C50.4789 32.1159 50.7887 32 51.169 32C51.5493 32 51.8592 32.1304 52.0986 32.3768C52.338 32.6232 52.4648 32.9565 52.4648 33.3478V33.913H52.4507ZM51.831 33.3478C51.831 33.1014 51.7746 32.8986 51.6479 32.7391C51.5211 32.5797 51.3662 32.5072 51.1549 32.5072C50.9437 32.5072 50.7746 32.5797 50.662 32.7391C50.5493 32.8986 50.493 33.1014 50.493 33.3478V33.9275C50.493 34.1739 50.5493 34.3913 50.662 34.5362C50.7746 34.6957 50.9437 34.7681 51.1549 34.7681C51.3662 34.7681 51.5352 34.6957 51.6479 34.5362C51.7606 34.3768 51.831 34.1739 51.831 33.9275V33.3478ZM54.9859 32.5362H54.1127V35.2174H53.493V32.5362H52.6197V32.0435H54.9718V32.5362H54.9859ZM56.7746 34.5362H55.6901L55.4789 35.2174H54.8592L55.9155 32.0435H56.5493L57.6056 35.2174H56.9859L56.7746 34.5362ZM55.8451 34.029H56.6197L56.2394 32.7826H56.2254L55.8451 34.029ZM59.8028 33.8261H58.5211V34.7246H60.0141V35.2174H57.9014V32.0435H60.0141V32.5362H58.5211V33.3333H59.8028V33.8261ZM61.1972 32.0435L61.9859 34.3768H62L62.7887 32.0435H63.5916V35.2174H62.9718V34.2754L63.0282 32.8696H63.0141L62.1831 35.2174H61.7746L60.9577 32.8841H60.9437L61 34.2754V35.2174H60.3803V32.0435H61.1972ZM65.2535 35.2174V32.0435H66.2958C66.662 32.0435 66.9437 32.1159 67.1408 32.2609C67.338 32.4058 67.4507 32.6232 67.4507 32.913C67.4507 33.058 67.4085 33.1884 67.338 33.3043C67.2676 33.4203 67.1549 33.5072 67.0141 33.5652C67.1972 33.6087 67.338 33.6957 67.4366 33.8261C67.5352 33.9565 67.5775 34.1159 67.5775 34.2899C67.5775 34.5942 67.4789 34.8261 67.2817 34.9855C67.0845 35.1449 66.8169 35.2174 66.4507 35.2174H65.2535ZM65.8732 33.3768H66.3239C66.493 33.3768 66.6197 33.3478 66.7042 33.2754C66.7887 33.2029 66.831 33.1014 66.831 32.971C66.831 32.8261 66.7887 32.7101 66.6901 32.6522C66.6056 32.5797 66.4648 32.5507 66.2958 32.5507H65.8732V33.3768ZM65.8732 33.8116V34.7246H66.4366C66.6056 34.7246 66.7183 34.6812 66.8169 34.6087C66.9155 34.5362 66.9437 34.4203 66.9437 34.2899C66.9437 34.1304 66.9014 34.0145 66.831 33.9275C66.7606 33.8406 66.6479 33.8116 66.4789 33.8116H65.8732ZM70.3662 34.1304C70.3803 34.4783 70.2817 34.7536 70.0704 34.9565C69.8592 35.1594 69.5775 35.2609 69.1972 35.2609C68.831 35.2609 68.5211 35.1449 68.2958 34.8986C68.0704 34.6522 67.9437 34.3333 67.9437 33.9565V33.3333C67.9437 32.942 68.0563 32.6377 68.2817 32.3913C68.507 32.1449 68.8028 32.0145 69.169 32.0145C69.5493 32.0145 69.8451 32.1159 70.0563 32.3188C70.2676 32.5217 70.3803 32.7971 70.3662 33.1449V33.1594H69.7606C69.7606 32.9565 69.7183 32.7971 69.6197 32.6812C69.5211 32.5652 69.3662 32.5217 69.169 32.5217C68.9859 32.5217 68.831 32.5942 68.7324 32.7536C68.6197 32.913 68.5634 33.1014 68.5634 33.3478V33.9855C68.5634 34.2319 68.6197 34.4203 68.7324 34.5797C68.8451 34.7391 69 34.8116 69.1972 34.8116C69.3944 34.8116 69.5352 34.7536 69.6197 34.6522C69.7183 34.5507 69.7606 34.3913 69.7606 34.1739H70.3662V34.1304ZM72.7042 33.8261H71.4225V34.7246H72.9155V35.2174H70.8028V32.0435H72.9155V32.5362H71.4225V33.3333H72.7042V33.8261ZM75.3099 32.5362H73.9155V35.2174H73.2958V32.0435H75.3099V32.5362ZM78.169 36H77.6056V35.2174H75.7183V36H75.1549L75.1127 34.7246H75.3521C75.4648 34.6232 75.5634 34.4783 75.6479 34.2609C75.7324 34.058 75.7746 33.7391 75.7887 33.3333L75.8732 32.029H77.8732V34.7101H78.2394L78.169 36ZM76.3803 33.3478C76.3662 33.6667 76.3239 33.942 76.2676 34.1594C76.2113 34.3913 76.1268 34.5797 76.0282 34.7246H77.2394V32.5362H76.4366L76.3803 33.3478ZM80.2676 34.5362H79.1831L78.9718 35.2174H78.3521L79.4085 32.0435H80.0423L81.0986 35.2174H80.4789L80.2676 34.5362ZM79.338 34.029H80.1127L79.7324 32.7826H79.7183L79.338 34.029ZM82 34.1159H81.3803V32.0435H82V34.1159ZM82 35.2174H81.3803V34.6667H82V35.2174Z" fill="#161C24"/>
</svg>
