<svg width="20" height="20" viewBox="0 0 20 20" fill="none" xmlns="http://www.w3.org/2000/svg">
<path d="M16.3092 8.13326C16.3088 8.13295 16.3085 8.13254 16.3082 8.13224L10.8687 2.69295C10.6369 2.46099 10.3286 2.33331 10.0007 2.33331C9.67283 2.33331 9.36457 2.46099 9.13262 2.69295L3.69597 8.12949C3.69414 8.13132 3.69221 8.13326 3.69048 8.13509C3.21436 8.61396 3.21517 9.39091 3.69282 9.86856C3.91104 10.0869 4.19916 10.2132 4.50731 10.2266C4.51993 10.2278 4.53254 10.2284 4.54526 10.2284H4.76196V14.2313C4.76196 15.0235 5.40655 15.668 6.19877 15.668H8.32687C8.54265 15.668 8.71754 15.493 8.71754 15.2773V12.139C8.71754 11.7775 9.01165 11.4835 9.37312 11.4835H10.6283C10.9898 11.4835 11.2838 11.7775 11.2838 12.139V15.2773C11.2838 15.493 11.4587 15.668 11.6745 15.668H13.8026C14.5949 15.668 15.2394 15.0235 15.2394 14.2313V10.2284H15.4404C15.7682 10.2284 16.0765 10.1007 16.3085 9.86866C16.7867 9.3903 16.7869 8.61192 16.3092 8.13326ZM15.756 9.31624C15.6717 9.40057 15.5596 9.44707 15.4404 9.44707H14.8487C14.6329 9.44707 14.4581 9.62195 14.4581 9.83773V14.2313C14.4581 14.5926 14.1641 14.8867 13.8026 14.8867H12.0651V12.139C12.0651 11.3468 11.4206 10.7022 10.6283 10.7022H9.37312C8.5808 10.7022 7.93621 11.3468 7.93621 12.139V14.8867H6.19877C5.8374 14.8867 5.54329 14.5926 5.54329 14.2313V9.83773C5.54329 9.62195 5.3684 9.44707 5.15262 9.44707H4.5711C4.565 9.44666 4.559 9.44635 4.55279 9.44625C4.4364 9.44422 4.32724 9.39803 4.24545 9.31613C4.07148 9.14217 4.07148 8.85904 4.24545 8.68497C4.24534 8.68507 4.24555 8.68497 4.24545 8.68497L9.68525 3.24537C9.76948 3.16103 9.88149 3.11464 10.0007 3.11464C10.1199 3.11464 10.2319 3.16103 10.3162 3.24537L15.7543 8.68334C15.7551 8.68415 15.756 8.68497 15.7568 8.68578C15.9299 8.86005 15.9296 9.14257 15.756 9.31624Z" fill="#161C24"/>
<path d="M15.756 9.31624C15.6717 9.40057 15.5596 9.44707 15.4404 9.44707H14.8487C14.6329 9.44707 14.4581 9.62195 14.4581 9.83773V14.2313C14.4581 14.5926 14.1641 14.8867 13.8026 14.8867H12.0651V12.139C12.0651 11.3468 11.4206 10.7022 10.6283 10.7022H9.37312C8.5808 10.7022 7.93621 11.3468 7.93621 12.139V14.8867H6.19877C5.8374 14.8867 5.54329 14.5926 5.54329 14.2313V9.83773C5.54329 9.62195 5.3684 9.44707 5.15262 9.44707H4.5711C4.565 9.44666 4.559 9.44635 4.55279 9.44625C4.4364 9.44422 4.32724 9.39803 4.24545 9.31613C4.07148 9.14217 4.07148 8.85904 4.24545 8.68497L9.68525 3.24537C9.76948 3.16103 9.88149 3.11464 10.0007 3.11464C10.1199 3.11464 10.2319 3.16103 10.3162 3.24537L15.7543 8.68334L15.7568 8.68578C15.9299 8.86005 15.9296 9.14257 15.756 9.31624Z" fill="#161C24"/>
</svg>
