<svg width="56" height="56" viewBox="0 0 56 56" fill="none" xmlns="http://www.w3.org/2000/svg">
<circle cx="28" cy="28" r="27.5" stroke="#4295E4" stroke-opacity="0.3"/>
<path d="M36.9448 26.174C36.8883 26.0659 36.7763 25.9982 36.6544 25.9983H19.3485C19.2266 25.9983 19.1148 26.066 19.0583 26.174L16.8932 30.2962C16.8089 30.4566 16.8706 30.6549 17.031 30.7393C17.0781 30.764 17.1305 30.7769 17.1836 30.7769H19.0211V38.0144C19.0212 38.1956 19.1681 38.3424 19.3493 38.3425H36.6542C36.8354 38.3425 36.9823 38.1956 36.9823 38.0144V30.7769H38.8198C39.001 30.7769 39.1479 30.63 39.1479 30.4487C39.1479 30.3956 39.135 30.3432 39.1102 30.2962L36.9448 26.174ZM19.5469 26.6545H27.4573L25.6386 30.1207H17.7261L19.5469 26.6545ZM19.6761 30.7769H25.8354C25.9575 30.7769 26.0694 30.7093 26.1261 30.6012L27.6726 27.6575V37.6874H19.6761V30.7769ZM36.3261 37.6869H28.3292V27.6569L29.8761 30.6012C29.9326 30.7093 30.0445 30.777 30.1665 30.7769H36.3261V37.6869ZM30.3636 30.1207L28.5448 26.6545H36.4562L38.2761 30.1207H30.3636Z" fill="#4295E4" stroke="#4295E4" stroke-width="0.5"/>
<path d="M28.0024 24.9744C30.0231 24.9744 31.6611 23.3363 31.6611 21.3157C31.6611 19.295 30.0231 17.657 28.0024 17.657C25.9818 17.657 24.3438 19.295 24.3438 21.3157V21.3159C24.346 23.3355 25.9828 24.9722 28.0024 24.9744ZM28.0024 18.3132C29.6606 18.3132 31.0049 19.6575 31.0049 21.3157C31.0049 22.9739 29.6606 24.3181 28.0024 24.3181C26.3443 24.3181 25.0001 22.974 25 21.3159C25.0019 19.6584 26.345 18.3152 28.0024 18.3132Z" fill="#4295E4" stroke="#4295E4" stroke-width="0.5"/>
<path d="M28.3328 22.2293H26.8555C26.6742 22.2293 26.5273 22.3762 26.5273 22.5575C26.5273 22.7387 26.6742 22.8856 26.8555 22.8856H28.332C29.0791 22.8768 29.6776 22.264 29.6688 21.5169C29.6601 20.7822 29.0667 20.1888 28.332 20.1801H27.6477L27.8757 19.9521C28.0062 19.8264 28.01 19.6187 27.8843 19.4882C27.7586 19.3577 27.5509 19.3538 27.4204 19.4795C27.4176 19.4821 27.415 19.4848 27.4123 19.4875L26.6248 20.275C26.4966 20.403 26.4965 20.6106 26.6245 20.7388C26.6246 20.7389 26.6247 20.739 26.6248 20.7391L27.4123 21.5266C27.5405 21.6547 27.7482 21.6547 27.8764 21.5266C28.0045 21.3984 28.0045 21.1907 27.8764 21.0625L27.6482 20.8343H28.3327C28.7174 20.8407 29.0241 21.1576 29.0178 21.5422C29.0116 21.918 28.7085 22.2211 28.3327 22.2273L28.3328 22.2293Z" fill="#4295E4" stroke="#4295E4" stroke-width="0.5"/>
</svg>
