<svg width="32" height="32" viewBox="0 0 32 32" fill="none" xmlns="http://www.w3.org/2000/svg">
<g clip-path="url(#clip0_321_7690)">
<path d="M0.0076952 22.1948C0.0076952 22.1982 0.00731659 22.2017 0.00731659 22.2051C0.00731659 26.4122 3.41772 29.8226 7.62478 29.8226C11.8318 29.8226 15.2422 26.4123 15.2422 22.2051C15.2422 17.998 11.8315 14.5877 7.62472 14.5877C6.76011 14.5877 5.93246 14.7384 5.15804 15.0039C6.87184 5.17235 14.5386 -1.16801 7.4316 4.05024C-0.449083 9.8367 -0.00112247 21.9727 0.0076952 22.1948Z" fill="#4295E4"/>
<path d="M24.3825 14.5877C23.5179 14.5877 22.6903 14.7385 21.9155 15.004C23.6297 5.17242 31.2965 -1.16795 24.1894 4.05031C16.3087 9.83671 16.7566 21.9727 16.7655 22.1948C16.7655 22.1982 16.7651 22.2017 16.7651 22.2051C16.7651 26.4122 20.1754 29.8226 24.3825 29.8226C28.5896 29.8226 32 26.4123 32 22.2051C32 17.998 28.5893 14.5877 24.3825 14.5877Z" fill="#4295E4"/>
</g>
<defs>
<clipPath id="clip0_321_7690">
<rect width="32" height="32" fill="white" transform="matrix(-1 0 0 -1 32 32)"/>
</clipPath>
</defs>
</svg>
