<svg width="56" height="56" viewBox="0 0 56 56" fill="none" xmlns="http://www.w3.org/2000/svg">
<circle cx="28" cy="28" r="27.5" stroke="#4295E4" stroke-opacity="0.3"/>
<path d="M17.5 36.2698C17.5 37.4995 18.5005 38.5 19.7302 38.5H36.2697C37.4995 38.5 38.5 37.4995 38.5 36.2698V19.7302C38.5 18.5005 37.4995 17.5 36.2698 17.5H19.7302C18.5005 17.5 17.5 18.5005 17.5 19.7302V36.2698ZM36.2698 37H19.7302C19.3274 37 19 36.6726 19 36.2698V35.1109L25.7243 29.7307L32.0019 35.3103C32.311 35.5857 32.7849 35.5587 33.0602 35.2481C33.3356 34.939 33.3078 34.4644 32.998 34.1898L31.2813 32.6638L33.1797 31.2403L37 35.0606V36.2698C37 36.6726 36.6726 37 36.2698 37ZM19.7302 19H36.2697C36.6726 19 37 19.3274 37 19.7302V32.9394L33.7803 29.7197C33.5173 29.4545 33.0984 29.426 32.8003 29.6501L30.1377 31.6471L26.248 28.1897C25.9763 27.9465 25.5676 27.9355 25.2812 28.164L19 33.1891V19.7302C19 19.3274 19.3274 19 19.7302 19Z" fill="#4295E4"/>
<path d="M31.75 26.5C33.4046 26.5 34.75 25.1546 34.75 23.5C34.75 21.8454 33.4046 20.5 31.75 20.5C30.0954 20.5 28.75 21.8454 28.75 23.5C28.75 25.1546 30.0954 26.5 31.75 26.5ZM31.75 22C32.5769 22 33.25 22.6731 33.25 23.5C33.25 24.3269 32.5769 25 31.75 25C30.9231 25 30.25 24.3269 30.25 23.5C30.25 22.6731 30.9231 22 31.75 22Z" fill="#4295E4"/>
</svg>
