<svg width="56" height="56" viewBox="0 0 56 56" fill="none" xmlns="http://www.w3.org/2000/svg">
<circle cx="28" cy="28" r="27.5" stroke="#4295E4" stroke-opacity="0.3"/>
<g clip-path="url(#clip0_185_4155)">
<mask id="path-2-inside-1_185_4155" fill="white">
<path d="M35.4815 29.4811L35.2043 29.2039C35.177 29.1766 35.1706 29.1321 35.1865 29.0939L35.1937 29.0763C35.209 29.0391 35.2519 29.0312 35.285 29.0312H35.6771C37.0527 29.0312 38.1719 27.9022 38.1719 26.5143V25.7357C38.1719 25.067 37.9097 24.4423 37.4338 23.9768C36.965 23.5181 36.3412 23.2656 35.6771 23.2656H35.2849C35.2695 23.2656 35.2184 23.2334 35.192 23.1697L35.1876 23.1592C35.1704 23.1179 35.177 23.0734 35.2043 23.0461L35.4815 22.7689C35.9526 22.2977 36.2123 21.6711 36.2123 21.0048C36.2123 20.3385 35.9526 19.7119 35.4815 19.2408L34.9309 18.6904C34.4598 18.2191 33.8334 17.9596 33.1669 17.9596C32.5005 17.9596 31.8741 18.2191 31.403 18.6904L31.1256 18.9676C31.0983 18.9949 31.054 19.0015 31.0139 18.9848L30.998 18.9782C30.9608 18.9628 30.9529 18.92 30.9529 18.8868V18.4946C30.9531 17.1191 29.8241 16 28.4362 16H27.6576C26.2697 16 25.1406 17.1191 25.1406 18.4946V18.8868C25.1406 18.92 25.1328 18.9628 25.0965 18.9777L25.0811 18.9841C25.0397 19.0013 24.9952 18.9949 24.968 18.9676L24.6907 18.6902C24.2196 18.2191 23.593 17.9596 22.9267 17.9596C22.2604 17.9596 21.6338 18.2191 21.1627 18.6902L20.6122 19.2408C20.1409 19.7119 19.8815 20.3385 19.8815 21.0048C19.8815 21.6711 20.1409 22.2977 20.6121 22.7689L20.8895 23.0461C20.9167 23.0734 20.9232 23.1179 20.9067 23.1578L20.8999 23.1737C20.8845 23.2109 20.8419 23.2188 20.8087 23.2188H20.4165C19.041 23.2188 17.9219 24.3478 17.9219 25.7357V26.5143C17.9219 27.183 18.1841 27.8077 18.66 28.2732C19.1287 28.7319 19.7526 28.9844 20.4165 28.9844H20.8087C20.8241 28.9844 20.8754 29.0166 20.9016 29.08L20.9059 29.0908C20.9232 29.1321 20.9167 29.1766 20.8895 29.2039L20.6121 29.4811C19.6394 30.4538 19.6394 32.0366 20.6121 33.0092L21.1627 33.5598C22.1353 34.5325 23.7181 34.5325 24.6907 33.5598L24.968 33.2824C24.9952 33.2551 25.0397 33.2487 25.0797 33.2652L25.0956 33.272C25.1328 33.2872 25.1406 33.33 25.1406 33.3632V33.7552C25.1406 35.1309 26.2697 36.25 27.6576 36.25H28.4362C29.8241 36.25 30.9531 35.1309 30.9531 33.7552V33.3632C30.9531 33.33 30.961 33.2872 30.9982 33.272L31.0126 33.2659C31.054 33.2487 31.0985 33.2551 31.1258 33.2824L31.403 33.5598C32.3757 34.5325 33.9584 34.5325 34.9311 33.5598L35.4817 33.0092C36.4543 32.0366 36.4543 30.4538 35.4815 29.4811ZM33.8786 30.5298L34.1558 30.807C34.3973 31.0485 34.3973 31.4418 34.1558 31.6833L33.6052 32.2339C33.3635 32.4756 32.9704 32.4755 32.7289 32.2339L32.4517 31.9567C31.8857 31.3907 31.0385 31.2249 30.2923 31.5347L30.2824 31.5387C29.5509 31.8408 29.0781 32.5569 29.0781 33.3632V33.7552C29.0781 34.0912 28.7842 34.375 28.4362 34.375H27.6576C27.3097 34.375 27.0156 34.0912 27.0156 33.7552V33.3632C27.0156 32.5569 26.5428 31.8408 25.8113 31.5387L25.8002 31.5341C25.5511 31.4307 25.2906 31.3805 25.033 31.3805C24.5203 31.3805 24.0189 31.5799 23.6421 31.9565L23.3649 32.2339C23.1234 32.4756 22.7302 32.4755 22.4885 32.2339L21.9379 31.6833C21.6964 31.4418 21.6964 31.0485 21.9379 30.807L22.2153 30.5298C22.7813 29.9638 22.947 29.1166 22.6365 28.3688L22.6332 28.3605C22.3239 27.6122 21.5909 27.1094 20.8087 27.1094H20.4165C20.0692 27.1094 19.7969 26.8481 19.7969 26.5143V25.7357C19.7969 25.3876 20.0807 25.0938 20.4165 25.0938H20.8087C21.6147 25.0938 22.3309 24.621 22.6345 23.886L22.6376 23.8783C22.947 23.1334 22.7811 22.2862 22.2151 21.7202L21.9379 21.443C21.8209 21.326 21.7565 21.1703 21.7565 21.0048C21.7565 20.8393 21.8209 20.6837 21.9379 20.5667L22.4885 20.0161C22.6057 19.899 22.7612 19.8346 22.9267 19.8346C23.0922 19.8346 23.2479 19.899 23.3649 20.0161L23.6423 20.2933C24.2083 20.8593 25.0553 21.0251 25.8016 20.7151L25.8113 20.7111C26.5428 20.409 27.0156 19.6929 27.0156 18.8868V18.4946C27.0156 18.1588 27.3095 17.875 27.6576 17.875H28.4362C28.7842 17.875 29.0781 18.1588 29.0781 18.4946V18.8868C29.0781 19.6929 29.5509 20.409 30.2833 20.7115L30.2936 20.7157C31.0385 21.0251 31.8855 20.8594 32.4517 20.2933L32.7289 20.0161C32.8459 19.899 33.0015 19.8346 33.1671 19.8346C33.3326 19.8346 33.4882 19.899 33.6052 20.0161L34.1558 20.5667C34.2728 20.6837 34.3373 20.8393 34.3373 21.0048C34.3373 21.1703 34.2728 21.326 34.1558 21.443L33.8784 21.7202C33.3124 22.2862 33.1467 23.1334 33.4565 23.8796L33.4606 23.8895C33.7697 24.6378 34.5028 25.1406 35.285 25.1406H35.6772C36.0246 25.1406 36.2969 25.4019 36.2969 25.7357V26.5143C36.2969 26.8622 36.0131 27.1562 35.6772 27.1562H35.285C34.479 27.1562 33.7629 27.629 33.4611 28.3598L33.4562 28.3717C33.1467 29.1166 33.3124 29.9638 33.8786 30.5298ZM40 34.5156V36.25C40 38.3178 38.3178 40 36.25 40C35.7322 40 35.3125 39.5803 35.3125 39.0625C35.3125 38.5447 35.7322 38.125 36.25 38.125C37.2838 38.125 38.125 37.2838 38.125 36.25V34.5156C38.125 33.9978 38.5447 33.5781 39.0625 33.5781C39.5803 33.5781 40 33.9978 40 34.5156ZM32.4531 39.0625C32.4531 39.5803 32.0334 40 31.5156 40H19.75C17.6822 40 16 38.3178 16 36.25V34.5156C16 33.9978 16.4197 33.5781 16.9375 33.5781C17.4553 33.5781 17.875 33.9978 17.875 34.5156V36.25C17.875 37.2838 18.7162 38.125 19.75 38.125H31.5156C32.0334 38.125 32.4531 38.5447 32.4531 39.0625ZM31.4343 25.9575C31.8004 26.3235 31.8004 26.9171 31.4343 27.2833L29.9946 28.7231C29.4632 29.2543 28.757 29.5469 28.0057 29.5469C27.2544 29.5469 26.5482 29.2543 26.017 28.7231L24.5772 27.2833C24.211 26.9171 24.211 26.3237 24.5772 25.9575C24.9432 25.5914 25.5369 25.5914 25.9029 25.9575L27.1136 27.1682L27.1094 22.8915C27.1088 22.3739 27.5281 21.9537 28.046 21.9531H28.0469C28.5641 21.9531 28.9838 22.3723 28.9844 22.8897L28.9886 27.0773L30.1085 25.9575C30.4745 25.5914 31.0681 25.5914 31.4343 25.9575Z"/>
</mask>
<path d="M35.4815 29.4811L35.2043 29.2039C35.177 29.1766 35.1706 29.1321 35.1865 29.0939L35.1937 29.0763C35.209 29.0391 35.2519 29.0312 35.285 29.0312H35.6771C37.0527 29.0312 38.1719 27.9022 38.1719 26.5143V25.7357C38.1719 25.067 37.9097 24.4423 37.4338 23.9768C36.965 23.5181 36.3412 23.2656 35.6771 23.2656H35.2849C35.2695 23.2656 35.2184 23.2334 35.192 23.1697L35.1876 23.1592C35.1704 23.1179 35.177 23.0734 35.2043 23.0461L35.4815 22.7689C35.9526 22.2977 36.2123 21.6711 36.2123 21.0048C36.2123 20.3385 35.9526 19.7119 35.4815 19.2408L34.9309 18.6904C34.4598 18.2191 33.8334 17.9596 33.1669 17.9596C32.5005 17.9596 31.8741 18.2191 31.403 18.6904L31.1256 18.9676C31.0983 18.9949 31.054 19.0015 31.0139 18.9848L30.998 18.9782C30.9608 18.9628 30.9529 18.92 30.9529 18.8868V18.4946C30.9531 17.1191 29.8241 16 28.4362 16H27.6576C26.2697 16 25.1406 17.1191 25.1406 18.4946V18.8868C25.1406 18.92 25.1328 18.9628 25.0965 18.9777L25.0811 18.9841C25.0397 19.0013 24.9952 18.9949 24.968 18.9676L24.6907 18.6902C24.2196 18.2191 23.593 17.9596 22.9267 17.9596C22.2604 17.9596 21.6338 18.2191 21.1627 18.6902L20.6122 19.2408C20.1409 19.7119 19.8815 20.3385 19.8815 21.0048C19.8815 21.6711 20.1409 22.2977 20.6121 22.7689L20.8895 23.0461C20.9167 23.0734 20.9232 23.1179 20.9067 23.1578L20.8999 23.1737C20.8845 23.2109 20.8419 23.2188 20.8087 23.2188H20.4165C19.041 23.2188 17.9219 24.3478 17.9219 25.7357V26.5143C17.9219 27.183 18.1841 27.8077 18.66 28.2732C19.1287 28.7319 19.7526 28.9844 20.4165 28.9844H20.8087C20.8241 28.9844 20.8754 29.0166 20.9016 29.08L20.9059 29.0908C20.9232 29.1321 20.9167 29.1766 20.8895 29.2039L20.6121 29.4811C19.6394 30.4538 19.6394 32.0366 20.6121 33.0092L21.1627 33.5598C22.1353 34.5325 23.7181 34.5325 24.6907 33.5598L24.968 33.2824C24.9952 33.2551 25.0397 33.2487 25.0797 33.2652L25.0956 33.272C25.1328 33.2872 25.1406 33.33 25.1406 33.3632V33.7552C25.1406 35.1309 26.2697 36.25 27.6576 36.25H28.4362C29.8241 36.25 30.9531 35.1309 30.9531 33.7552V33.3632C30.9531 33.33 30.961 33.2872 30.9982 33.272L31.0126 33.2659C31.054 33.2487 31.0985 33.2551 31.1258 33.2824L31.403 33.5598C32.3757 34.5325 33.9584 34.5325 34.9311 33.5598L35.4817 33.0092C36.4543 32.0366 36.4543 30.4538 35.4815 29.4811ZM33.8786 30.5298L34.1558 30.807C34.3973 31.0485 34.3973 31.4418 34.1558 31.6833L33.6052 32.2339C33.3635 32.4756 32.9704 32.4755 32.7289 32.2339L32.4517 31.9567C31.8857 31.3907 31.0385 31.2249 30.2923 31.5347L30.2824 31.5387C29.5509 31.8408 29.0781 32.5569 29.0781 33.3632V33.7552C29.0781 34.0912 28.7842 34.375 28.4362 34.375H27.6576C27.3097 34.375 27.0156 34.0912 27.0156 33.7552V33.3632C27.0156 32.5569 26.5428 31.8408 25.8113 31.5387L25.8002 31.5341C25.5511 31.4307 25.2906 31.3805 25.033 31.3805C24.5203 31.3805 24.0189 31.5799 23.6421 31.9565L23.3649 32.2339C23.1234 32.4756 22.7302 32.4755 22.4885 32.2339L21.9379 31.6833C21.6964 31.4418 21.6964 31.0485 21.9379 30.807L22.2153 30.5298C22.7813 29.9638 22.947 29.1166 22.6365 28.3688L22.6332 28.3605C22.3239 27.6122 21.5909 27.1094 20.8087 27.1094H20.4165C20.0692 27.1094 19.7969 26.8481 19.7969 26.5143V25.7357C19.7969 25.3876 20.0807 25.0938 20.4165 25.0938H20.8087C21.6147 25.0938 22.3309 24.621 22.6345 23.886L22.6376 23.8783C22.947 23.1334 22.7811 22.2862 22.2151 21.7202L21.9379 21.443C21.8209 21.326 21.7565 21.1703 21.7565 21.0048C21.7565 20.8393 21.8209 20.6837 21.9379 20.5667L22.4885 20.0161C22.6057 19.899 22.7612 19.8346 22.9267 19.8346C23.0922 19.8346 23.2479 19.899 23.3649 20.0161L23.6423 20.2933C24.2083 20.8593 25.0553 21.0251 25.8016 20.7151L25.8113 20.7111C26.5428 20.409 27.0156 19.6929 27.0156 18.8868V18.4946C27.0156 18.1588 27.3095 17.875 27.6576 17.875H28.4362C28.7842 17.875 29.0781 18.1588 29.0781 18.4946V18.8868C29.0781 19.6929 29.5509 20.409 30.2833 20.7115L30.2936 20.7157C31.0385 21.0251 31.8855 20.8594 32.4517 20.2933L32.7289 20.0161C32.8459 19.899 33.0015 19.8346 33.1671 19.8346C33.3326 19.8346 33.4882 19.899 33.6052 20.0161L34.1558 20.5667C34.2728 20.6837 34.3373 20.8393 34.3373 21.0048C34.3373 21.1703 34.2728 21.326 34.1558 21.443L33.8784 21.7202C33.3124 22.2862 33.1467 23.1334 33.4565 23.8796L33.4606 23.8895C33.7697 24.6378 34.5028 25.1406 35.285 25.1406H35.6772C36.0246 25.1406 36.2969 25.4019 36.2969 25.7357V26.5143C36.2969 26.8622 36.0131 27.1562 35.6772 27.1562H35.285C34.479 27.1562 33.7629 27.629 33.4611 28.3598L33.4562 28.3717C33.1467 29.1166 33.3124 29.9638 33.8786 30.5298ZM40 34.5156V36.25C40 38.3178 38.3178 40 36.25 40C35.7322 40 35.3125 39.5803 35.3125 39.0625C35.3125 38.5447 35.7322 38.125 36.25 38.125C37.2838 38.125 38.125 37.2838 38.125 36.25V34.5156C38.125 33.9978 38.5447 33.5781 39.0625 33.5781C39.5803 33.5781 40 33.9978 40 34.5156ZM32.4531 39.0625C32.4531 39.5803 32.0334 40 31.5156 40H19.75C17.6822 40 16 38.3178 16 36.25V34.5156C16 33.9978 16.4197 33.5781 16.9375 33.5781C17.4553 33.5781 17.875 33.9978 17.875 34.5156V36.25C17.875 37.2838 18.7162 38.125 19.75 38.125H31.5156C32.0334 38.125 32.4531 38.5447 32.4531 39.0625ZM31.4343 25.9575C31.8004 26.3235 31.8004 26.9171 31.4343 27.2833L29.9946 28.7231C29.4632 29.2543 28.757 29.5469 28.0057 29.5469C27.2544 29.5469 26.5482 29.2543 26.017 28.7231L24.5772 27.2833C24.211 26.9171 24.211 26.3237 24.5772 25.9575C24.9432 25.5914 25.5369 25.5914 25.9029 25.9575L27.1136 27.1682L27.1094 22.8915C27.1088 22.3739 27.5281 21.9537 28.046 21.9531H28.0469C28.5641 21.9531 28.9838 22.3723 28.9844 22.8897L28.9886 27.0773L30.1085 25.9575C30.4745 25.5914 31.0681 25.5914 31.4343 25.9575Z" fill="#4295E4" stroke="#F5FAFF" stroke-width="0.6" mask="url(#path-2-inside-1_185_4155)"/>
</g>
<defs>
<clipPath id="clip0_185_4155">
<rect width="24" height="24" fill="white" transform="translate(16 16)"/>
</clipPath>
</defs>
</svg>
