<svg width="20" height="20" viewBox="0 0 20 20" fill="none" xmlns="http://www.w3.org/2000/svg">
<path d="M5.27778 5C5.12437 5 5 5.12438 5 5.27781V11.1118C5 11.7255 5.49746 12.2231 6.11111 12.2231H13.15L11.2333 14.1344C11.1807 14.1866 11.1512 14.2576 11.1512 14.3316C11.1512 14.4057 11.1807 14.4767 11.2333 14.5289L11.6278 14.9178C11.6799 14.9704 11.7509 15 11.825 15C11.8991 15 11.9701 14.9704 12.0222 14.9178L14.8778 12.0675C14.9559 11.9894 14.9999 11.8835 15 11.773V11.5619C14.9987 11.4516 14.9549 11.3461 14.8778 11.2674L12.0222 8.41707C11.9701 8.36447 11.8991 8.33489 11.825 8.33489C11.7509 8.33489 11.6799 8.36447 11.6278 8.41707L11.2333 8.81156C11.1811 8.86276 11.1516 8.93285 11.1516 9.00602C11.1516 9.07919 11.1811 9.14928 11.2333 9.20049L13.15 11.1118H6.11111V5.27781C6.11111 5.12438 5.98675 5 5.83333 5H5.27778Z" fill="#4295E4"/>
</svg>
