<svg width="20" height="20" viewBox="0 0 20 20" fill="none" xmlns="http://www.w3.org/2000/svg">
<path d="M16.5419 6.04172L7.70854 14.8751C7.6303 14.9539 7.5238 14.9983 7.4127 14.9983C7.3016 14.9983 7.19511 14.9539 7.11687 14.8751L2.6252 10.3834C2.54632 10.3052 2.50195 10.1987 2.50195 10.0876C2.50195 9.97646 2.54632 9.86996 2.6252 9.79172L3.20854 9.20839C3.28677 9.12951 3.39327 9.08514 3.50437 9.08514C3.61547 9.08514 3.72197 9.12951 3.8002 9.20839L7.40854 12.8167L15.3669 4.85839C15.5317 4.69857 15.7937 4.69857 15.9585 4.85839L16.5419 5.45006C16.6207 5.52829 16.6651 5.63479 16.6651 5.74589C16.6651 5.85699 16.6207 5.96349 16.5419 6.04172Z" fill="#596469" stroke="white"/>
</svg>
